<svg xmlns="http://www.w3.org/2000/svg" width="128" height="128" viewBox="0 0 128 128" fill="none">
  <rect width="128" height="128" rx="64" fill="#1E5B96"/>
  <path d="M35 77.5C35 65.074 45.074 55 57.5 55H70.5C82.926 55 93 65.074 93 77.5V77.5C93 89.926 82.926 100 70.5 100H57.5C45.074 100 35 89.926 35 77.5V77.5Z" fill="#38B6FF"/>
  <path d="M37 48C37 41.373 42.373 36 49 36H79C85.627 36 91 41.373 91 48V48C91 54.627 85.627 60 79 60H49C42.373 60 37 54.627 37 48V48Z" fill="#2E8BC0"/>
  <path d="M64 28C66.7614 28 69 30.2386 69 33V36H59V33C59 30.2386 61.2386 28 64 28Z" fill="#38B6FF"/>
  <path d="M57 70L44 90" stroke="white" stroke-width="4" stroke-linecap="round"/>
  <path d="M71 70L84 90" stroke="white" stroke-width="4" stroke-linecap="round"/>
  <path d="M50 48H78" stroke="white" stroke-width="4" stroke-linecap="round"/>
</svg>
